<mxfile host="app.diagrams.net" agent="Mozilla/5.0 (Macintosh; Intel Mac OS X 10_15_7) AppleWebKit/605.1.15 (KHTML, like Gecko) Version/18.3.1 Safari/605.1.15" version="26.2.14">
  <diagram name="Page-1" id="ORakzUnhV8JCbeobNpkM">
    <mxGraphModel dx="1763" dy="1187" grid="1" gridSize="10" guides="1" tooltips="1" connect="1" arrows="1" fold="1" page="1" pageScale="1" pageWidth="850" pageHeight="1100" math="0" shadow="0">
      <root>
        <mxCell id="0" />
        <mxCell id="1" parent="0" />
        <mxCell id="PPV0CoCjDwiKYYMUzD3a-34" style="edgeStyle=orthogonalEdgeStyle;rounded=0;orthogonalLoop=1;jettySize=auto;html=1;endArrow=block;endFill=0;startSize=22;endSize=20;" parent="1" source="PPV0CoCjDwiKYYMUzD3a-16" target="PPV0CoCjDwiKYYMUzD3a-6" edge="1">
          <mxGeometry relative="1" as="geometry" />
        </mxCell>
        <mxCell id="PPV0CoCjDwiKYYMUzD3a-16" value="Authority" style="swimlane;fontStyle=0;align=center;verticalAlign=top;childLayout=stackLayout;horizontal=1;startSize=30;horizontalStack=0;resizeParent=1;resizeParentMax=0;resizeLast=0;collapsible=0;marginBottom=0;html=1;whiteSpace=wrap;" parent="1" vertex="1">
          <mxGeometry x="390" y="80" width="240" height="80" as="geometry" />
        </mxCell>
        <mxCell id="PPV0CoCjDwiKYYMUzD3a-18" value="" style="line;strokeWidth=1;fillColor=none;align=left;verticalAlign=middle;spacingTop=-1;spacingLeft=3;spacingRight=3;rotatable=0;labelPosition=right;points=[];portConstraint=eastwest;" parent="PPV0CoCjDwiKYYMUzD3a-16" vertex="1">
          <mxGeometry y="30" width="240" height="20" as="geometry" />
        </mxCell>
        <mxCell id="Az-UcVmYGKHEkP8nkGcq-7" value="&lt;div style=&quot;line-height: 60%;&quot;&gt;+resolveReport(ProblemReport): void&lt;div&gt;&lt;br&gt;&lt;/div&gt;&lt;div style=&quot;text-align: left;&quot;&gt;+removeReport(ProblemReport): void&lt;/div&gt;&lt;/div&gt;" style="text;html=1;align=center;verticalAlign=middle;whiteSpace=wrap;rounded=0;" vertex="1" parent="PPV0CoCjDwiKYYMUzD3a-16">
          <mxGeometry y="50" width="240" height="30" as="geometry" />
        </mxCell>
        <mxCell id="PPV0CoCjDwiKYYMUzD3a-35" style="edgeStyle=orthogonalEdgeStyle;rounded=0;orthogonalLoop=1;jettySize=auto;html=1;entryX=1;entryY=0.5;entryDx=0;entryDy=0;endArrow=block;endFill=0;endSize=20;" parent="1" source="PPV0CoCjDwiKYYMUzD3a-20" target="PPV0CoCjDwiKYYMUzD3a-8" edge="1">
          <mxGeometry relative="1" as="geometry">
            <mxPoint x="198.03999999999996" y="393.0139999999999" as="targetPoint" />
          </mxGeometry>
        </mxCell>
        <mxCell id="PPV0CoCjDwiKYYMUzD3a-36" value="Notification" style="swimlane;fontStyle=0;align=center;verticalAlign=top;childLayout=stackLayout;horizontal=1;startSize=20;horizontalStack=0;resizeParent=1;resizeParentMax=0;resizeLast=0;collapsible=0;marginBottom=0;html=1;whiteSpace=wrap;" parent="1" vertex="1">
          <mxGeometry x="425" y="510" width="170" height="80" as="geometry" />
        </mxCell>
        <mxCell id="PPV0CoCjDwiKYYMUzD3a-37" value="-notificationId : int&lt;div&gt;-notifContent : String&lt;/div&gt;" style="text;html=1;strokeColor=none;fillColor=none;align=left;verticalAlign=middle;spacingLeft=4;spacingRight=4;overflow=hidden;rotatable=0;points=[[0,0.5],[1,0.5]];portConstraint=eastwest;whiteSpace=wrap;" parent="PPV0CoCjDwiKYYMUzD3a-36" vertex="1">
          <mxGeometry y="20" width="170" height="50" as="geometry" />
        </mxCell>
        <mxCell id="PPV0CoCjDwiKYYMUzD3a-38" value="" style="line;strokeWidth=1;fillColor=none;align=left;verticalAlign=middle;spacingTop=-1;spacingLeft=3;spacingRight=3;rotatable=0;labelPosition=right;points=[];portConstraint=eastwest;" parent="PPV0CoCjDwiKYYMUzD3a-36" vertex="1">
          <mxGeometry y="70" width="170" height="8" as="geometry" />
        </mxCell>
        <mxCell id="PPV0CoCjDwiKYYMUzD3a-39" value="&lt;div&gt;&lt;br&gt;&lt;/div&gt;" style="text;html=1;strokeColor=none;fillColor=none;align=left;verticalAlign=middle;spacingLeft=4;spacingRight=4;overflow=hidden;rotatable=0;points=[[0,0.5],[1,0.5]];portConstraint=eastwest;whiteSpace=wrap;" parent="PPV0CoCjDwiKYYMUzD3a-36" vertex="1">
          <mxGeometry y="78" width="170" height="2" as="geometry" />
        </mxCell>
        <mxCell id="PPV0CoCjDwiKYYMUzD3a-40" style="edgeStyle=orthogonalEdgeStyle;rounded=0;orthogonalLoop=1;jettySize=auto;html=1;entryX=-0.006;entryY=0.138;entryDx=0;entryDy=0;entryPerimeter=0;dashed=1;startArrow=open;startFill=0;startSize=20;endArrow=none;" parent="1" source="Az-UcVmYGKHEkP8nkGcq-4" target="PPV0CoCjDwiKYYMUzD3a-36" edge="1">
          <mxGeometry relative="1" as="geometry">
            <mxPoint x="330" y="420" as="sourcePoint" />
          </mxGeometry>
        </mxCell>
        <mxCell id="PPV0CoCjDwiKYYMUzD3a-72" style="rounded=0;orthogonalLoop=1;jettySize=auto;html=1;entryX=-0.004;entryY=0.12;entryDx=0;entryDy=0;entryPerimeter=0;startArrow=diamondThin;startFill=1;startSize=20;endArrow=none;" parent="1" source="PPV0CoCjDwiKYYMUzD3a-41" target="Az-UcVmYGKHEkP8nkGcq-18" edge="1">
          <mxGeometry relative="1" as="geometry">
            <mxPoint x="1310" y="500" as="targetPoint" />
          </mxGeometry>
        </mxCell>
        <mxCell id="PPV0CoCjDwiKYYMUzD3a-74" style="rounded=0;orthogonalLoop=1;jettySize=auto;html=1;entryX=0;entryY=0.25;entryDx=0;entryDy=0;endArrow=none;startFill=1;startArrow=diamondThin;startSize=20;" parent="1" source="PPV0CoCjDwiKYYMUzD3a-41" target="PPV0CoCjDwiKYYMUzD3a-64" edge="1">
          <mxGeometry relative="1" as="geometry" />
        </mxCell>
        <mxCell id="PPV0CoCjDwiKYYMUzD3a-41" value="ProblemReport" style="swimlane;fontStyle=0;align=center;verticalAlign=top;childLayout=stackLayout;horizontal=1;startSize=30;horizontalStack=0;resizeParent=1;resizeParentMax=0;resizeLast=0;collapsible=0;marginBottom=0;html=1;whiteSpace=wrap;" parent="1" vertex="1">
          <mxGeometry x="920" y="250" width="320" height="270" as="geometry" />
        </mxCell>
        <mxCell id="Az-UcVmYGKHEkP8nkGcq-11" value="&lt;div style=&quot;line-height: 30%;&quot;&gt;&lt;div&gt;&lt;br&gt;&lt;/div&gt;&lt;div&gt;&lt;br&gt;&lt;/div&gt;&lt;div&gt;&lt;br&gt;&lt;/div&gt;&lt;div&gt;-reportId: int&lt;br&gt;&lt;/div&gt;&lt;div&gt;&lt;br&gt;&lt;/div&gt;&lt;div&gt;&lt;br&gt;&lt;/div&gt;&lt;div&gt;&lt;br&gt;&lt;/div&gt;&lt;div&gt;&lt;br&gt;&lt;/div&gt;&lt;div&gt;-reportTitle: String&lt;/div&gt;&lt;div&gt;&lt;br&gt;&lt;/div&gt;&lt;div&gt;&lt;br&gt;&lt;/div&gt;&lt;div&gt;&lt;br&gt;&lt;/div&gt;&lt;div&gt;&lt;br&gt;&lt;/div&gt;&lt;div&gt;&lt;br&gt;&lt;/div&gt;&lt;div&gt;-description: String&lt;/div&gt;&lt;div&gt;&lt;br&gt;&lt;/div&gt;&lt;div&gt;&lt;br&gt;&lt;/div&gt;&lt;div&gt;&lt;br&gt;&lt;/div&gt;&lt;div&gt;&lt;br&gt;&lt;/div&gt;&lt;div&gt;&lt;br&gt;&lt;/div&gt;&lt;div&gt;-comments: ArrayList&amp;lt;Comment&amp;gt;&lt;/div&gt;&lt;div&gt;&lt;br&gt;&lt;/div&gt;&lt;div&gt;&lt;br&gt;&lt;/div&gt;&lt;div&gt;&lt;br&gt;&lt;/div&gt;&lt;div&gt;&lt;br&gt;&lt;/div&gt;&lt;div&gt;&lt;br&gt;&lt;/div&gt;&lt;div&gt;-upvoteCount: int&lt;/div&gt;&lt;div&gt;&lt;br&gt;&lt;/div&gt;&lt;div&gt;&lt;br&gt;&lt;/div&gt;&lt;div&gt;&lt;br&gt;&lt;/div&gt;&lt;div&gt;&lt;br&gt;&lt;/div&gt;&lt;div&gt;&lt;br&gt;&lt;/div&gt;&lt;div&gt;-downvoteCount: int&lt;/div&gt;&lt;div&gt;&lt;br&gt;&lt;/div&gt;&lt;div&gt;&lt;br&gt;&lt;/div&gt;&lt;div&gt;&lt;br&gt;&lt;/div&gt;&lt;div&gt;&lt;br&gt;&lt;/div&gt;&lt;div&gt;&lt;br&gt;&lt;/div&gt;&lt;div&gt;-mediaAttachments: ArrayList &amp;lt;MediaAttachment&amp;gt;&lt;/div&gt;&lt;div&gt;&lt;br&gt;&lt;/div&gt;&lt;div&gt;&lt;br&gt;&lt;/div&gt;&lt;div&gt;&lt;br&gt;&lt;/div&gt;&lt;div&gt;&lt;br&gt;&lt;/div&gt;&lt;div&gt;&lt;br&gt;&lt;/div&gt;&lt;div&gt;-wasUsefulCount: int&lt;/div&gt;&lt;div&gt;&lt;br&gt;&lt;/div&gt;&lt;div&gt;&lt;br&gt;&lt;/div&gt;&lt;div&gt;&lt;br&gt;&lt;/div&gt;&lt;div&gt;&lt;br&gt;&lt;/div&gt;&lt;div&gt;&lt;br&gt;&lt;/div&gt;&lt;div&gt;-wasnotUsefulCount: int&lt;/div&gt;&lt;div&gt;&lt;br&gt;&lt;/div&gt;&lt;div&gt;&lt;br&gt;&lt;/div&gt;&lt;div&gt;&lt;br&gt;&lt;/div&gt;&lt;div&gt;&lt;br&gt;&lt;/div&gt;&lt;div&gt;&lt;br&gt;&lt;/div&gt;&lt;div&gt;-commentNumber: int&lt;/div&gt;&lt;div&gt;&lt;br&gt;&lt;/div&gt;&lt;div&gt;&lt;br&gt;&lt;/div&gt;&lt;div&gt;&lt;br&gt;&lt;/div&gt;&lt;div&gt;&lt;br&gt;&lt;/div&gt;&lt;div&gt;&lt;br&gt;&lt;/div&gt;&lt;div&gt;-location: Location&lt;/div&gt;&lt;div&gt;&lt;br&gt;&lt;/div&gt;&lt;div&gt;&lt;br&gt;&lt;/div&gt;&lt;div&gt;&lt;br&gt;&lt;/div&gt;&lt;div&gt;&lt;br&gt;&lt;/div&gt;&lt;div&gt;&lt;br&gt;&lt;/div&gt;&lt;div&gt;-category: Category&lt;/div&gt;&lt;div&gt;&lt;br&gt;&lt;/div&gt;&lt;/div&gt;" style="text;html=1;strokeColor=none;fillColor=none;align=left;verticalAlign=middle;spacingLeft=4;spacingRight=4;overflow=hidden;rotatable=0;points=[[0,0.5],[1,0.5]];portConstraint=eastwest;whiteSpace=wrap;" vertex="1" parent="PPV0CoCjDwiKYYMUzD3a-41">
          <mxGeometry y="30" width="320" height="230" as="geometry" />
        </mxCell>
        <mxCell id="PPV0CoCjDwiKYYMUzD3a-43" value="" style="line;strokeWidth=1;fillColor=none;align=left;verticalAlign=middle;spacingTop=-1;spacingLeft=3;spacingRight=3;rotatable=0;labelPosition=right;points=[];portConstraint=eastwest;" parent="PPV0CoCjDwiKYYMUzD3a-41" vertex="1">
          <mxGeometry y="260" width="320" height="10" as="geometry" />
        </mxCell>
        <mxCell id="PPV0CoCjDwiKYYMUzD3a-64" value="MediaAttachement" style="swimlane;fontStyle=0;align=center;verticalAlign=top;childLayout=stackLayout;horizontal=1;startSize=40;horizontalStack=0;resizeParent=1;resizeParentMax=0;resizeLast=0;collapsible=0;marginBottom=0;html=1;whiteSpace=wrap;" parent="1" vertex="1">
          <mxGeometry x="1250" y="600" width="140" height="80" as="geometry" />
        </mxCell>
        <mxCell id="PPV0CoCjDwiKYYMUzD3a-65" value="-fileLocation: String" style="text;html=1;strokeColor=none;fillColor=none;align=left;verticalAlign=middle;spacingLeft=4;spacingRight=4;overflow=hidden;rotatable=0;points=[[0,0.5],[1,0.5]];portConstraint=eastwest;whiteSpace=wrap;" parent="PPV0CoCjDwiKYYMUzD3a-64" vertex="1">
          <mxGeometry y="40" width="140" height="40" as="geometry" />
        </mxCell>
        <mxCell id="PPV0CoCjDwiKYYMUzD3a-67" value="" style="group" parent="1" vertex="1" connectable="0">
          <mxGeometry x="1350" y="230" width="210" height="180" as="geometry" />
        </mxCell>
        <mxCell id="PPV0CoCjDwiKYYMUzD3a-55" value="Category" style="swimlane;fontStyle=0;align=center;verticalAlign=top;childLayout=stackLayout;horizontal=1;startSize=40;horizontalStack=0;resizeParent=1;resizeParentMax=0;resizeLast=0;collapsible=0;marginBottom=0;html=1;whiteSpace=wrap;" parent="PPV0CoCjDwiKYYMUzD3a-67" vertex="1">
          <mxGeometry width="210.00000000000003" height="120" as="geometry" />
        </mxCell>
        <mxCell id="PPV0CoCjDwiKYYMUzD3a-56" value="-categoryId: int&amp;nbsp;&lt;div&gt;-categoryName: String&amp;nbsp;&lt;/div&gt;&lt;div&gt;-categories: String[]&lt;/div&gt;" style="text;html=1;strokeColor=none;fillColor=none;align=left;verticalAlign=middle;spacingLeft=4;spacingRight=4;overflow=hidden;rotatable=0;points=[[0,0.5],[1,0.5]];portConstraint=eastwest;whiteSpace=wrap;" parent="PPV0CoCjDwiKYYMUzD3a-55" vertex="1">
          <mxGeometry y="40" width="210.00000000000003" height="80" as="geometry" />
        </mxCell>
        <mxCell id="PPV0CoCjDwiKYYMUzD3a-66" value="+sortByDate(): void&lt;div&gt;+listPRBasedOnCategory(int): void&amp;nbsp;&lt;/div&gt;&lt;div&gt;&lt;br&gt;&lt;/div&gt;" style="rounded=0;whiteSpace=wrap;html=1;align=left;" parent="PPV0CoCjDwiKYYMUzD3a-67" vertex="1">
          <mxGeometry y="120" width="210.00000000000003" height="60" as="geometry" />
        </mxCell>
        <mxCell id="PPV0CoCjDwiKYYMUzD3a-69" style="rounded=0;orthogonalLoop=1;jettySize=auto;html=1;entryX=-0.003;entryY=0.144;entryDx=0;entryDy=0;entryPerimeter=0;endArrow=none;endFill=0;endSize=20;startArrow=diamondThin;startFill=0;startSize=20;" parent="1" source="PPV0CoCjDwiKYYMUzD3a-41" target="PPV0CoCjDwiKYYMUzD3a-55" edge="1">
          <mxGeometry relative="1" as="geometry" />
        </mxCell>
        <mxCell id="Az-UcVmYGKHEkP8nkGcq-5" value="" style="group" vertex="1" connectable="0" parent="1">
          <mxGeometry x="30" y="230" width="260" height="200" as="geometry" />
        </mxCell>
        <mxCell id="PPV0CoCjDwiKYYMUzD3a-6" value="User" style="swimlane;fontStyle=0;align=center;verticalAlign=top;childLayout=stackLayout;horizontal=1;startSize=30;horizontalStack=0;resizeParent=1;resizeParentMax=0;resizeLast=0;collapsible=0;marginBottom=0;html=1;whiteSpace=wrap;" parent="Az-UcVmYGKHEkP8nkGcq-5" vertex="1">
          <mxGeometry width="260.00000000000006" height="110" as="geometry" />
        </mxCell>
        <mxCell id="PPV0CoCjDwiKYYMUzD3a-8" value="-userId : int&lt;div&gt;-userName : String&lt;/div&gt;&lt;div&gt;-userSurname: String&lt;/div&gt;&lt;div&gt;-email : String&lt;/div&gt;&lt;div&gt;-password : String&lt;/div&gt;" style="text;html=1;strokeColor=none;fillColor=none;align=left;verticalAlign=middle;spacingLeft=4;spacingRight=4;overflow=hidden;rotatable=0;points=[[0,0.5],[1,0.5]];portConstraint=eastwest;whiteSpace=wrap;" parent="PPV0CoCjDwiKYYMUzD3a-6" vertex="1">
          <mxGeometry y="30" width="260.00000000000006" height="80" as="geometry" />
        </mxCell>
        <mxCell id="PPV0CoCjDwiKYYMUzD3a-11" value="" style="line;strokeWidth=1;fillColor=none;align=left;verticalAlign=middle;spacingTop=-1;spacingLeft=3;spacingRight=3;rotatable=0;labelPosition=right;points=[];portConstraint=eastwest;" parent="PPV0CoCjDwiKYYMUzD3a-6" vertex="1">
          <mxGeometry y="110" width="260.00000000000006" as="geometry" />
        </mxCell>
        <mxCell id="Az-UcVmYGKHEkP8nkGcq-4" value="+validatePassword(String): boolean&lt;div&gt;+changePassword(String): void&lt;/div&gt;&lt;div&gt;+changeName(String): void&lt;/div&gt;&lt;div&gt;+changeSurname(String): void&lt;/div&gt;&lt;div&gt;+addComment(ProblemReport, String): void&lt;/div&gt;&lt;div&gt;&lt;br&gt;&lt;/div&gt;" style="rounded=0;whiteSpace=wrap;html=1;align=left;" vertex="1" parent="Az-UcVmYGKHEkP8nkGcq-5">
          <mxGeometry y="108" width="260.00000000000006" height="92" as="geometry" />
        </mxCell>
        <mxCell id="Az-UcVmYGKHEkP8nkGcq-9" value="" style="group" vertex="1" connectable="0" parent="1">
          <mxGeometry x="380" y="230" width="420" height="229" as="geometry" />
        </mxCell>
        <mxCell id="Az-UcVmYGKHEkP8nkGcq-8" value="+incrementUpVotes(ProblemReport): void&lt;div&gt;+incrementDownVotes(ProblemReport): void&lt;/div&gt;&lt;div&gt;+incrementComments(ProblemReport): void&lt;/div&gt;&lt;div&gt;+attachMedia(ProblemReport, MediaAttachement): void&lt;/div&gt;&lt;div&gt;+saveReport(ProblemReport): void&lt;/div&gt;&lt;div&gt;+unsaveReport(ProblemReport): void&lt;br&gt;&lt;/div&gt;&lt;div&gt;+createReport(String, String, Category, Location, MediaAttechemnt): void&lt;br&gt;&lt;/div&gt;&lt;div&gt;&lt;br&gt;&lt;/div&gt;" style="rounded=0;whiteSpace=wrap;html=1;align=left;" vertex="1" parent="Az-UcVmYGKHEkP8nkGcq-9">
          <mxGeometry y="118" width="420" height="111" as="geometry" />
        </mxCell>
        <mxCell id="PPV0CoCjDwiKYYMUzD3a-20" value="Student" style="swimlane;fontStyle=0;align=center;verticalAlign=top;childLayout=stackLayout;horizontal=1;startSize=30;horizontalStack=0;resizeParent=1;resizeParentMax=0;resizeLast=0;collapsible=0;marginBottom=0;html=1;whiteSpace=wrap;" parent="Az-UcVmYGKHEkP8nkGcq-9" vertex="1">
          <mxGeometry width="420" height="118" as="geometry" />
        </mxCell>
        <mxCell id="PPV0CoCjDwiKYYMUzD3a-21" value="&lt;div&gt;-savedReports: ArrayList&amp;lt;ProblemReport&amp;gt;&lt;/div&gt;&lt;div&gt;-upVotes: HashSet&amp;lt;ProblemReport&amp;gt;&lt;/div&gt;&lt;div&gt;-downVotes: HashSet&amp;lt;ProblemReport&amp;gt;&lt;/div&gt;&lt;div&gt;-likes: HashSet&amp;lt;Comment&amp;gt;&lt;/div&gt;&lt;div&gt;-wasPostHelpful: HashSet&amp;lt;ProblemReport, boolean&amp;gt;&lt;/div&gt;" style="text;html=1;strokeColor=none;fillColor=none;align=left;verticalAlign=middle;spacingLeft=4;spacingRight=4;overflow=hidden;rotatable=0;points=[[0,0.5],[1,0.5]];portConstraint=eastwest;whiteSpace=wrap;" parent="PPV0CoCjDwiKYYMUzD3a-20" vertex="1">
          <mxGeometry y="30" width="420" height="80" as="geometry" />
        </mxCell>
        <mxCell id="PPV0CoCjDwiKYYMUzD3a-22" value="" style="line;strokeWidth=1;fillColor=none;align=left;verticalAlign=middle;spacingTop=-1;spacingLeft=3;spacingRight=3;rotatable=0;labelPosition=right;points=[];portConstraint=eastwest;" parent="PPV0CoCjDwiKYYMUzD3a-20" vertex="1">
          <mxGeometry y="110" width="420" height="8" as="geometry" />
        </mxCell>
        <mxCell id="Az-UcVmYGKHEkP8nkGcq-12" value="" style="group" vertex="1" connectable="0" parent="1">
          <mxGeometry x="1350" y="30" width="180" height="180" as="geometry" />
        </mxCell>
        <mxCell id="Az-UcVmYGKHEkP8nkGcq-13" value="Location" style="swimlane;fontStyle=0;align=center;verticalAlign=top;childLayout=stackLayout;horizontal=1;startSize=40;horizontalStack=0;resizeParent=1;resizeParentMax=0;resizeLast=0;collapsible=0;marginBottom=0;html=1;whiteSpace=wrap;" vertex="1" parent="Az-UcVmYGKHEkP8nkGcq-12">
          <mxGeometry width="180" height="100" as="geometry" />
        </mxCell>
        <mxCell id="Az-UcVmYGKHEkP8nkGcq-14" value="-name: String&amp;nbsp;&lt;div&gt;-reportNumber: int&amp;nbsp;&lt;/div&gt;&lt;div&gt;-locations: String[]&lt;/div&gt;" style="text;html=1;strokeColor=none;fillColor=none;align=left;verticalAlign=middle;spacingLeft=4;spacingRight=4;overflow=hidden;rotatable=0;points=[[0,0.5],[1,0.5]];portConstraint=eastwest;whiteSpace=wrap;" vertex="1" parent="Az-UcVmYGKHEkP8nkGcq-13">
          <mxGeometry y="40" width="180" height="60" as="geometry" />
        </mxCell>
        <mxCell id="Az-UcVmYGKHEkP8nkGcq-15" value="+incrementReportNumber(): void" style="rounded=0;whiteSpace=wrap;html=1;align=left;" vertex="1" parent="Az-UcVmYGKHEkP8nkGcq-12">
          <mxGeometry y="100" width="180" height="50" as="geometry" />
        </mxCell>
        <mxCell id="Az-UcVmYGKHEkP8nkGcq-16" style="rounded=0;orthogonalLoop=1;jettySize=auto;html=1;entryX=0.001;entryY=0.179;entryDx=0;entryDy=0;entryPerimeter=0;endArrow=none;endFill=0;endSize=20;targetPerimeterSpacing=18;startArrow=diamondThin;startFill=0;sourcePerimeterSpacing=0;startSize=20;" edge="1" parent="1" source="PPV0CoCjDwiKYYMUzD3a-41" target="Az-UcVmYGKHEkP8nkGcq-13">
          <mxGeometry relative="1" as="geometry" />
        </mxCell>
        <mxCell id="Az-UcVmYGKHEkP8nkGcq-17" value="" style="group" vertex="1" connectable="0" parent="1">
          <mxGeometry x="920" y="600" width="210.00000000000003" height="180" as="geometry" />
        </mxCell>
        <mxCell id="Az-UcVmYGKHEkP8nkGcq-18" value="Comment" style="swimlane;fontStyle=0;align=center;verticalAlign=top;childLayout=stackLayout;horizontal=1;startSize=40;horizontalStack=0;resizeParent=1;resizeParentMax=0;resizeLast=0;collapsible=0;marginBottom=0;html=1;whiteSpace=wrap;" vertex="1" parent="Az-UcVmYGKHEkP8nkGcq-17">
          <mxGeometry width="210" height="130" as="geometry" />
        </mxCell>
        <mxCell id="Az-UcVmYGKHEkP8nkGcq-19" value="-author: User&lt;div&gt;-commentId: int&amp;nbsp;&lt;/div&gt;&lt;div&gt;-commentContent: String&lt;/div&gt;&lt;div&gt;-time: LocalDateTime&lt;/div&gt;&lt;div&gt;-likeNumber: int&lt;/div&gt;&lt;div&gt;-belongingReport: ProblemReport&lt;/div&gt;" style="text;html=1;strokeColor=none;fillColor=none;align=left;verticalAlign=middle;spacingLeft=4;spacingRight=4;overflow=hidden;rotatable=0;points=[[0,0.5],[1,0.5]];portConstraint=eastwest;whiteSpace=wrap;" vertex="1" parent="Az-UcVmYGKHEkP8nkGcq-18">
          <mxGeometry y="40" width="210" height="90" as="geometry" />
        </mxCell>
        <mxCell id="Az-UcVmYGKHEkP8nkGcq-21" style="edgeStyle=orthogonalEdgeStyle;rounded=0;orthogonalLoop=1;jettySize=auto;html=1;entryX=0.011;entryY=0.045;entryDx=0;entryDy=0;entryPerimeter=0;dashed=1;endArrow=none;endFill=0;endSize=14;startArrow=open;startFill=0;startSize=20;" edge="1" parent="1" source="PPV0CoCjDwiKYYMUzD3a-20" target="PPV0CoCjDwiKYYMUzD3a-41">
          <mxGeometry relative="1" as="geometry" />
        </mxCell>
        <mxCell id="Az-UcVmYGKHEkP8nkGcq-22" style="edgeStyle=orthogonalEdgeStyle;rounded=0;orthogonalLoop=1;jettySize=auto;html=1;dashed=1;startArrow=open;startFill=0;endArrow=none;startSize=20;" edge="1" parent="1" source="Az-UcVmYGKHEkP8nkGcq-4" target="Az-UcVmYGKHEkP8nkGcq-19">
          <mxGeometry relative="1" as="geometry" />
        </mxCell>
        <mxCell id="Az-UcVmYGKHEkP8nkGcq-23" style="edgeStyle=orthogonalEdgeStyle;rounded=0;orthogonalLoop=1;jettySize=auto;html=1;entryX=0.228;entryY=0.001;entryDx=0;entryDy=0;entryPerimeter=0;dashed=1;endArrow=none;startFill=0;startArrow=open;startSize=20;" edge="1" parent="1" source="PPV0CoCjDwiKYYMUzD3a-16" target="PPV0CoCjDwiKYYMUzD3a-41">
          <mxGeometry relative="1" as="geometry" />
        </mxCell>
      </root>
    </mxGraphModel>
  </diagram>
</mxfile>
